<svg viewBox="0 0 24 24">
<path d="M16.5586 8.94L7.61859 0L6.20859 1.41L8.58859 3.79L3.43859 8.94C2.84859 9.53 2.84859 10.48 3.43859 11.06L8.93859 16.56C9.22859 16.85 9.61859 17 9.99859 17C10.3786 17 10.7686 16.85 11.0586 16.56L16.5586 11.06C17.1486 10.48 17.1486 9.53 16.5586 8.94ZM5.20859 10L9.99859 5.21L14.7886 10H5.20859ZM18.9986 11.5C18.9986 11.5 16.9986 13.67 16.9986 15C16.9986 16.1 17.8986 17 18.9986 17C20.0986 17 20.9986 16.1 20.9986 15C20.9986 13.67 18.9986 11.5 18.9986 11.5Z"/>
<path d="M0 20H24V24H0V20Z"/>
</svg>
