<svg viewBox="0 0 14 14">
<path d="M12.334 0.333313H4.33398C3.60065 0.333313 3.00065 0.933313 3.00065 1.66665V9.66665C3.00065 10.4 3.60065 11 4.33398 11H12.334C13.0673 11 13.6673 10.4 13.6673 9.66665V1.66665C13.6673 0.933313 13.0673 0.333313 12.334 0.333313ZM6.66732 5.33331C6.66732 5.88665 6.22065 6.33331 5.66732 6.33331H5.00065V7.66665H4.00065V3.66665H5.66732C6.22065 3.66665 6.66732 4.11331 6.66732 4.66665V5.33331ZM10.0007 6.66665C10.0007 7.21998 9.55398 7.66665 9.00065 7.66665H7.33398V3.66665H9.00065C9.55398 3.66665 10.0007 4.11331 10.0007 4.66665V6.66665ZM12.6673 4.66665H11.6673V5.33331H12.6673V6.33331H11.6673V7.66665H10.6673V3.66665H12.6673V4.66665ZM5.00065 5.33331H5.66732V4.66665H5.00065V5.33331ZM1.66732 2.99998H0.333984V12.3333C0.333984 13.0666 0.933984 13.6666 1.66732 13.6666H11.0007V12.3333H1.66732V2.99998ZM8.33398 6.66665H9.00065V4.66665H8.33398V6.66665Z"/>
</svg>
