<svg viewBox="0 0 24 24">
<path d="M14.7075 5.11219C15.3774 5.20691 16.0334 5.37516 16.6815 5.57434C17.813 5.92278 18.8808 6.40684 19.8849 7.0348C19.9548 7.07814 20.048 7.10566 20.1303 7.10566C21.3098 7.11053 22.4888 7.10882 23.6673 7.1098C23.7623 7.1098 23.8567 7.11978 23.9515 7.12514C23.9515 7.14827 23.9549 7.15801 23.951 7.16337C23.8959 7.2481 23.8402 7.33162 23.7849 7.41611C23.3849 8.02971 23.043 8.67155 22.8411 9.38109C22.8192 9.4573 22.8146 9.5211 22.8662 9.59585C23.9162 11.1035 24.2512 12.7588 23.8124 14.5431C23.4277 16.108 22.5307 17.3282 21.1676 18.1921C20.1934 18.8098 19.1172 19.104 17.9674 19.1103C17.4843 19.1132 17.0037 19.0482 16.5318 18.926C15.382 18.6277 14.3964 18.0545 13.5841 17.1865C13.4769 17.0725 13.3761 16.9534 13.2619 16.8246C12.8324 17.4648 12.4097 18.0944 11.9768 18.7407C11.5456 18.0964 11.1287 17.4728 10.7128 16.8517C10.6841 16.8668 10.6758 16.8685 10.6702 16.8738C10.6607 16.8816 10.6527 16.8911 10.6451 16.9001C9.66264 18.0603 8.42668 18.7716 6.92093 19.0095C6.08331 19.1422 5.25374 19.0945 4.44023 18.8702C3.2873 18.5534 2.30749 17.9452 1.5159 17.0477C0.742323 16.1701 0.261184 15.1514 0.0805129 13.9931C-0.126211 12.912 0.125559 11.8696 0.18838 11.6166C0.370512 10.8812 0.688025 10.206 1.12387 9.58513C1.15455 9.54106 1.16527 9.46314 1.15066 9.41055C0.97291 8.75872 0.666597 8.16582 0.307934 7.598C0.216868 7.45361 0.107784 7.31993 0.00697846 7.18138C0.00697846 7.16556 0.00697846 7.14924 0.00697846 7.13317C0.0271883 7.13561 0.0471546 7.1395 0.0668774 7.1395C1.27362 7.13999 2.48012 7.14048 3.68687 7.13804C3.73946 7.13804 3.7979 7.11637 3.8427 7.08764C4.69054 6.54368 5.5939 6.1127 6.54303 5.77717C7.22748 5.53562 7.9263 5.34716 8.639 5.2091C9.32906 5.07567 10.0228 4.98168 10.7238 4.93542C12.4328 4.80393 13.7988 4.98485 14.7075 5.11219ZM13.1947 13.0819C13.1947 15.7318 15.3448 17.8967 17.9852 17.8865C20.6356 17.877 22.7759 15.773 22.7739 13.0939C22.772 10.3329 20.5324 8.25737 17.8824 8.31119C15.2664 8.36548 13.2186 10.4741 13.1947 13.0819ZM6.00905 8.29292C3.43145 8.27052 1.18402 10.4218 1.22906 13.162C1.27094 15.7175 3.37715 17.8838 6.06262 17.8607C8.68843 17.8383 10.799 15.6941 10.8039 13.0975C10.808 10.4298 8.67163 8.29292 6.00905 8.29292ZM6.2467 7.04284C7.70278 7.13171 8.98184 7.63915 10.0625 8.62188C11.1409 9.60267 11.7727 10.8262 12.0024 12.265C12.2385 10.8433 12.8538 9.63115 13.9121 8.66011C14.972 7.68809 16.234 7.17798 17.6662 7.07011C15.9666 6.31455 14.1745 5.99363 12.3298 5.95808C10.2334 5.91693 8.19414 6.22592 6.2467 7.04284Z"/>
<path d="M17.9755 10.0588C19.6154 10.0561 20.9436 11.3773 20.9436 13.0155C20.9436 14.66 19.638 15.9313 18.0977 15.99C16.3774 16.056 15.001 14.6854 15.0015 13.0228C15.0029 11.3413 16.3891 10.031 17.9755 10.0588ZM19.9098 13.0228C19.909 11.9539 19.0449 11.0851 17.9833 11.0851C16.9095 11.0851 16.0353 11.9493 16.0309 13.015C16.0271 14.0761 16.9056 14.9591 17.9694 14.962C19.0349 14.9661 19.9103 14.0898 19.9098 13.0228Z"/>
<path d="M5.94593 10.0588C7.58487 10.0571 8.91507 11.3807 8.91093 13.0187C8.9063 14.6766 7.59948 15.9201 6.08618 15.989C4.35909 16.0679 2.96559 14.6912 2.96876 13.0197C2.97216 11.3262 4.36786 10.0306 5.94593 10.0588ZM7.87803 13.0163C7.87487 11.9408 7.00512 11.0834 5.91939 11.0854C4.87213 11.0873 3.99459 11.9712 3.99702 13.0223C3.9997 14.0857 4.87627 14.96 5.94301 14.963C7.00317 14.9654 7.88071 14.0825 7.87803 13.0163Z"/>
<path d="M17.9766 12.0388C18.5201 12.0383 18.9657 12.4842 18.9606 13.0245C18.9552 13.566 18.5172 14.0048 17.9827 14.005C17.4324 14.005 16.99 13.5701 16.9912 13.0313C16.9922 12.4722 17.422 12.0393 17.9766 12.0388Z"/>
<path d="M5.94072 12.03C6.49247 12.0295 6.93587 12.4703 6.93806 13.0203C6.94025 13.5657 6.49271 14.0135 5.94364 14.0147C5.38142 14.0159 4.94776 13.5816 4.94824 13.0164C4.94824 12.4615 5.38093 12.0308 5.94072 12.03Z"/>
</svg>
