<svg viewBox="0 0 20 20">
<path d="M17.9998 0.666687H1.99984C1.2665 0.666687 0.666504 1.26669 0.666504 2.00002V18C0.666504 18.7334 1.2665 19.3334 1.99984 19.3334H17.9998C18.7332 19.3334 19.3332 18.7334 19.3332 18V2.00002C19.3332 1.26669 18.7332 0.666687 17.9998 0.666687ZM9.99984 4.33335C11.6532 4.33335 12.9998 5.68002 12.9998 7.33335C12.9998 8.98669 11.6532 10.3334 9.99984 10.3334C8.3465 10.3334 6.99984 8.98669 6.99984 7.33335C6.99984 5.68002 8.3465 4.33335 9.99984 4.33335ZM15.9998 16.6667H3.99984V15.6667C3.99984 13.6667 7.99984 12.6667 9.99984 12.6667C11.9998 12.6667 15.9998 13.6667 15.9998 15.6667V16.6667Z"/>
</svg>
